<svg width="16" height="16" viewBox="0 0 16 16" fill="none" xmlns="http://www.w3.org/2000/svg">
<rect width="16" height="16" rx="4" fill="#FDFCFC"/>
<path d="M8.44444 8.35599L8.44444 7.91155L7.55556 7.91155L7.55556 8.35599L8.44444 8.35599ZM8.44444 14.2227L8.44444 8.35599L7.55556 8.35599L7.55556 14.2227L8.44444 14.2227Z" fill="#333333"/>
<circle cx="7.99986" cy="4.71128" r="1.42222" fill="#333333"/>
<path fill-rule="evenodd" clip-rule="evenodd" d="M11.0928 2.03637C11.1783 1.95352 11.2605 1.86727 11.3391 1.77783C12.0273 2.56051 12.4446 3.58712 12.4446 4.7112C12.4446 5.83527 12.0273 6.86188 11.3391 7.64456C11.2605 7.55512 11.1783 7.46887 11.0928 7.38602C11.7135 6.66901 12.089 5.73396 12.089 4.7112C12.089 3.68843 11.7135 2.75338 11.0928 2.03637ZM4.9074 7.38602C4.28673 6.66901 3.91122 5.73396 3.91122 4.7112C3.91122 3.68843 4.28673 2.75338 4.9074 2.03637C4.82191 1.95352 4.73974 1.86727 4.6611 1.77783C3.97297 2.56051 3.55566 3.58712 3.55566 4.7112C3.55566 5.83527 3.97297 6.86188 4.6611 7.64456C4.73974 7.55512 4.82191 7.46887 4.9074 7.38602ZM10.6882 7.03822C11.2285 6.41458 11.5555 5.60099 11.5555 4.71104C11.5555 3.82117 11.2286 3.00766 10.6883 2.38404C10.5935 2.45616 10.4957 2.52455 10.3952 2.589C10.8959 3.15377 11.1999 3.8969 11.1999 4.71104C11.1999 5.52527 10.8958 6.26848 10.395 6.83327C10.4956 6.89772 10.5934 6.96611 10.6882 7.03822ZM5.605 6.83341C5.50444 6.89786 5.40665 6.96625 5.31184 7.03837C4.77141 6.4147 4.44439 5.60106 4.44439 4.71104C4.44439 3.82111 4.77134 3.00754 5.31168 2.3839C5.40648 2.45602 5.50427 2.52441 5.60482 2.58887C5.10403 3.15366 4.79995 3.89684 4.79995 4.71104C4.79995 5.52533 5.1041 6.26859 5.605 6.83341ZM9.91566 6.56633C10.3805 6.08637 10.6665 5.43229 10.6665 4.71139C10.6665 3.99036 10.3803 3.33617 9.9154 2.85619C9.79989 2.91144 9.68163 2.96184 9.56087 3.00714C10.0219 3.42964 10.311 4.03676 10.311 4.71139C10.311 5.38588 10.022 5.99288 9.56118 6.41537C9.68192 6.46067 9.80017 6.51108 9.91566 6.56633ZM6.43867 6.41551C6.31793 6.46082 6.19968 6.51124 6.0842 6.5665C5.6193 6.08653 5.33318 5.43237 5.33318 4.71139C5.33318 3.99028 5.61941 3.33601 6.08446 2.85602C6.19996 2.91127 6.31822 2.96169 6.43897 3.007C5.97786 3.42951 5.68874 4.03669 5.68874 4.71139C5.68874 5.38595 5.97773 5.99301 6.43867 6.41551Z" fill="#D95C5C"/>
</svg>
